<svg width="24" height="20" viewBox="0 0 24 20" fill="none" xmlns="http://www.w3.org/2000/svg">
<path fill-rule="evenodd" clip-rule="evenodd" d="M0 1.20012C0 0.53738 0.537258 0.00012207 1.2 0.00012207H22.8C23.4627 0.00012207 24 0.53738 24 1.20012C24 1.86286 23.4627 2.40012 22.8 2.40012H1.2C0.537258 2.40012 0 1.86286 0 1.20012ZM0 9.60005C0 8.9373 0.537259 8.40005 1.2 8.40005H16.8C17.4627 8.40005 18 8.9373 18 9.60005C18 10.2628 17.4627 10.8 16.8 10.8H1.2C0.537259 10.8 0 10.2628 0 9.60005ZM1.2 16.8002C0.537258 16.8002 0 17.3374 0 18.0002C0 18.6629 0.537258 19.2002 1.2 19.2002H22.8C23.4627 19.2002 24 18.6629 24 18.0002C24 17.3374 23.4627 16.8002 22.8 16.8002H1.2Z" fill="white"/>
</svg>
