<svg width="285" height="318" viewBox="0 0 285 318" fill="none" xmlns="http://www.w3.org/2000/svg">
<path d="M138.336 260.834C192.49 260.834 236.39 216.934 236.39 162.78C236.39 108.627 192.49 64.7271 138.336 64.7271C84.1829 64.7271 40.283 108.627 40.283 162.78C40.283 216.934 84.1829 260.834 138.336 260.834Z" fill="#DBF9FF"/>
<path d="M159.259 124.718C165.313 123.261 171.507 126.505 173.744 132.316L195.257 188.109C197.529 193.99 195.031 200.652 189.462 203.601C182.852 207.088 174.681 204.035 172.01 197.061L150.584 141.233C147.878 134.225 151.972 126.47 159.259 124.718Z" fill="#10ABCD"/>
<path d="M211.078 157.628L229.138 142.222C230.474 141.077 232.452 141.112 233.753 142.309L234.395 142.899L241.612 137.452C241.612 137.452 244.873 139.707 241.785 143.732C238.697 147.757 236.338 155.529 220.03 167.811L211.078 157.628Z" fill="#F0B38F"/>
<path d="M249.28 128.934L228.305 149.11" stroke="#312220" stroke-width="1.5916" stroke-miterlimit="10" stroke-linecap="round" stroke-linejoin="round"/>
<path d="M212.154 154.626L176.208 179.296L191.735 202.04L223.968 168.575L212.154 154.626Z" fill="#10ABCD"/>
<path d="M188.421 170.396L181.326 175.791" stroke="black" stroke-width="0.2971" stroke-miterlimit="10" stroke-linecap="round" stroke-linejoin="round"/>
<path d="M129.072 123.295L97.8625 119.461L97.3074 145.744L108.671 194.614H156.83L165.383 143.731L163.752 124.405L149.96 123.729L129.072 123.295Z" fill="#10ABCD"/>
<path d="M116.72 121.768L153.95 123.919C153.95 123.919 155.425 138.665 140.418 139.012C125.689 139.359 116.72 121.768 116.72 121.768Z" fill="#F0B38F"/>
<path d="M161.167 168.817L164.029 151.729" stroke="black" stroke-width="0.2971" stroke-miterlimit="10" stroke-linecap="round" stroke-linejoin="round"/>
<path d="M62.7145 54.9944C62.7145 54.9944 70.7989 55.3066 71.5275 45.1405L72.4296 31.9903C72.5337 30.6025 71.3887 29.4401 70.0008 29.5095C69.064 29.5616 68.2313 30.1688 67.9364 31.0709L65.4729 38.1837L60.1469 16.238C59.7826 14.7286 58.1519 13.9133 56.7293 14.5205C55.619 14.9889 54.9944 16.1686 55.2373 17.3483L58.0478 31.1229L56.8681 31.8689L50.7614 19.0658C50.1022 17.6952 48.35 17.2615 47.1356 18.1636C46.2161 18.8576 45.9039 20.1067 46.3896 21.1476L52.3575 33.7772L51.1604 34.714L44.6548 24.756C44.0476 23.8192 42.7638 23.5763 41.8617 24.2182C41.0116 24.8254 40.7687 25.9878 41.3239 26.8725L47.9336 37.5418L46.9795 38.3572L40.3177 31.0362C39.5717 30.2208 38.2532 30.2902 37.6113 31.1923C37.1429 31.8342 37.1776 32.719 37.6981 33.3262L45.1926 42.2606C45.1926 42.2606 49.096 56.0179 56.1221 55.9659L62.7145 54.9944Z" fill="#F0B38F"/>
<path d="M65.4555 38.201C65.4555 38.201 59.5397 36.5876 58.2039 46.4241" stroke="black" stroke-width="0.2578" stroke-miterlimit="10" stroke-linecap="round" stroke-linejoin="round"/>
<path d="M54.0924 54.231L53.3464 75.5002L68.5784 75.5869L67.6068 50.0327L54.0924 54.231Z" fill="#F0B38F"/>
<path d="M50.4493 67.3984L46.8408 115.089L71.597 117.553L72.6553 63.3389L50.4493 67.3984Z" fill="#10ABCD"/>
<path d="M111.342 149.994C107.56 154.938 105.721 156.882 100.326 153.776L53.0342 126.903C47.5694 123.746 45.3141 117.015 47.795 111.22C50.7268 104.35 59.0194 101.592 65.473 105.339L112.001 122.393C118.49 126.14 115.905 144.044 111.342 149.994Z" fill="#10ABCD"/>
<path d="M99.2156 153.134L104.958 155.979" stroke="black" stroke-width="0.2971" stroke-miterlimit="10" stroke-linecap="round" stroke-linejoin="round"/>
<path d="M193.487 316.418L194.805 310.086C196.471 303.372 196.089 296.311 193.695 289.823L156.934 200.669L115.367 194.597L153.794 302.938L151.695 315.88C165.816 317.615 179.626 317.563 193.487 316.418Z" fill="#43E4FD"/>
<path d="M108.67 200.669L105.097 208.945C97.5327 219.458 93.2997 233.024 93.0568 245.966L92.5364 309.583C106.953 310.207 121.352 310.71 135.769 311.057L143.766 194.615L108.67 200.669Z" fill="#43E4FD"/>
<path d="M156.916 194.615H108.67V200.687H156.916V194.615Z" fill="black"/>
<path d="M139.551 262.811C139.152 261.701 140.748 238.575 140.748 238.575L149.665 229.121" stroke="black" stroke-width="0.2851" stroke-miterlimit="10" stroke-linecap="round" stroke-linejoin="round"/>
<path d="M120.398 57.0415C120.398 57.0415 110.457 66.427 110.509 79.6118C110.544 93.1089 96.1102 93.5252 95.7285 106.537C95.7285 106.537 126.8 128.586 168.8 110.197C168.8 110.197 173.328 99.9789 169.251 93.1262C163.526 83.4805 162.364 74.7543 162.364 74.7543L120.398 57.0415Z" fill="black"/>
<path d="M136.755 97.152C150.518 97.5595 161.981 87.5327 162.359 74.7564C162.738 61.98 151.888 51.2924 138.125 50.8849C124.362 50.4774 112.898 60.5042 112.52 73.2805C112.142 86.0568 122.992 96.7445 136.755 97.152Z" fill="black"/>
<path d="M132.021 92.3457L126.279 129.905L144.755 130.512L144.651 96.6828L132.021 92.3457Z" fill="#F0B38F"/>
<path d="M144.686 113.51L130.235 101.887L144.616 99.0591L144.686 113.51Z" fill="#A4563A"/>
<path d="M151.886 93.0739C152.198 90.7319 152.909 88.4592 154.089 86.3601C155.702 83.4802 158.131 80.7392 161.601 82.5087C167.499 85.5274 161.288 95.0863 155.13 95.6762C153.308 95.8497 151.695 94.5485 151.886 93.0739Z" fill="#F0B38F"/>
<path d="M134.034 55.983C138.284 54.9594 142.777 54.8206 147.028 55.8615C152.787 57.2494 160.108 61.1181 160.733 71.7527C161.757 89.4655 159.016 100.655 150.584 105.253C144.668 108.462 138.77 107.924 131.189 103.188C128.361 101.436 124.77 95.2251 124.093 91.8248L122.081 82.3179C122.081 82.3179 113.701 60.8926 134.034 55.983Z" fill="#F0B38F"/>
<path d="M125.134 86.5859C125.377 85.0071 132.004 73.0367 127.892 56.6598C127.892 56.6598 121.942 54.925 119.357 65.8892C115.193 83.4632 125.134 86.5859 125.134 86.5859Z" fill="black"/>
<path d="M127.493 92.3106C127.042 89.8819 126.175 87.5225 124.822 85.3713C122.966 82.422 120.277 79.6636 116.72 81.7107C110.683 85.1978 117.709 94.8956 124.215 95.2078C126.158 95.2946 127.771 93.8373 127.493 92.3106Z" fill="#F0B38F"/>
<path d="M118.212 86.5161C122.879 85.0761 123.972 89.6735 123.972 89.6735" stroke="black" stroke-width="0.2951" stroke-miterlimit="10" stroke-linecap="round" stroke-linejoin="round"/>
<path d="M142.986 50.2063C142.986 50.2063 136.671 50.3451 133.6 51.1258C128.552 52.3922 125.308 55.272 125.099 56.9548C125.099 56.9548 131.987 67.9017 144.079 65.3168C151.504 63.7381 157.107 63.686 160.854 67.1731L161.895 72.1C164.081 70.105 165.157 67.1731 164.741 64.2412C163.89 58.4989 159.796 50.1543 142.986 50.2063Z" fill="black"/>
<path d="M283.387 150.342H263.332C262.43 150.342 261.719 149.613 261.719 148.728C261.719 147.826 262.447 147.115 263.332 147.115H283.387C284.289 147.115 285 147.843 285 148.728C285 149.613 284.271 150.342 283.387 150.342Z" fill="#43E4FD"/>
<path d="M29.7872 103.588H18.6322C17.7301 103.588 17.0188 102.859 17.0188 101.974C17.0188 101.072 17.7474 100.361 18.6322 100.361H29.7872C30.6894 100.361 31.4006 101.089 31.4006 101.974C31.4006 102.876 30.6894 103.588 29.7872 103.588Z" fill="#43E4FD"/>
<path d="M36.9175 242.549H11.5021C10.6 242.549 9.88867 241.82 9.88867 240.935C9.88867 240.05 10.6173 239.322 11.5021 239.322H36.9002C37.8023 239.322 38.5136 240.05 38.5136 240.935C38.5309 241.837 37.8023 242.549 36.9175 242.549Z" fill="#43E4FD"/>
<path d="M4.05959 76.4894H1.45733C0.780737 76.4894 0.225586 75.9342 0.225586 75.2577V72.8636C0.225586 72.187 0.780737 71.6318 1.45733 71.6318H4.05959C4.73618 71.6318 5.29133 72.187 5.29133 72.8636V75.2577C5.29133 75.9342 4.73618 76.4894 4.05959 76.4894Z" fill="#10ABCD"/>
<path d="M170.622 281.982H168.02C167.343 281.982 166.788 281.426 166.788 280.75V278.356C166.788 277.679 167.343 277.124 168.02 277.124H170.622C171.298 277.124 171.854 277.679 171.854 278.356V280.75C171.854 281.444 171.298 281.982 170.622 281.982Z" fill="#10ABCD"/>
<path d="M268.606 82.0929H266.003C265.327 82.0929 264.772 81.5378 264.772 80.8612V78.4671C264.772 77.7905 265.327 77.2354 266.003 77.2354H268.606C269.282 77.2354 269.837 77.7905 269.837 78.4671V80.8612C269.837 81.5551 269.282 82.0929 268.606 82.0929Z" fill="#10ABCD"/>
<path d="M216.075 67.9366C231.319 67.9366 243.676 55.579 243.676 40.3352C243.676 25.0914 231.319 12.7339 216.075 12.7339C200.831 12.7339 188.473 25.0914 188.473 40.3352C188.473 55.579 200.831 67.9366 216.075 67.9366Z" fill="#43E4FD"/>
<path d="M219.302 49.2003C215.121 49.2697 210.905 49.3217 207.054 49.0615C205.839 48.9747 204.781 47.049 206.256 46.4418C205.631 46.1296 205.006 45.8173 204.729 45.1234C204.469 44.4641 204.781 43.562 205.475 43.4059C204.035 43.7702 203.462 41.4628 204.59 40.7169C204 40.2138 203.497 39.5372 203.376 38.7565C203.254 37.9758 203.567 37.1084 204.261 36.7267C204.712 36.4838 205.249 36.4665 205.77 36.4665C207.505 36.4492 209.24 36.4318 210.974 36.4318C210.506 33.7081 210.367 30.7589 211.738 28.3648C212.154 27.6535 213.264 26.7861 214.166 27.3412C214.999 27.8617 214.774 29.1455 214.722 29.9608C214.548 33.3438 216.474 36.7441 219.458 38.3401C219.458 38.3228 219.25 45.5224 219.302 49.2003Z" fill="white"/>
<path d="M227.126 38.3228H220.811V49.1829H227.126V38.3228Z" fill="white"/>
<path d="M82.8907 282.294C95.0973 282.294 104.993 272.398 104.993 260.192C104.993 247.985 95.0973 238.09 82.8907 238.09C70.6842 238.09 60.7888 247.985 60.7888 260.192C60.7888 272.398 70.6842 282.294 82.8907 282.294Z" fill="#69E9FD"/>
<path d="M90.5067 254.692C88.7025 252.923 85.8053 252.958 84.0357 254.762L82.8734 255.959L81.6763 254.779C79.8721 253.01 76.9749 253.027 75.2054 254.831C73.4358 256.636 73.4532 259.533 75.2574 261.302L79.716 265.691C79.716 265.691 79.7333 265.709 79.7333 265.726C80.4446 266.42 81.3294 266.836 82.2315 266.975C83.6367 267.183 85.1287 266.75 86.2043 265.657L90.5761 261.181C92.3456 259.359 92.3109 256.462 90.5067 254.692Z" fill="white"/>
<path d="M117.744 36.8134C127.91 36.8134 136.151 28.5724 136.151 18.4067C136.151 8.24095 127.91 0 117.744 0C107.578 0 99.3372 8.24095 99.3372 18.4067C99.3372 28.5724 107.578 36.8134 117.744 36.8134Z" fill="#8EEFFE"/>
<path d="M124.093 13.8269C122.584 12.3523 120.173 12.387 118.698 13.879L117.727 14.8678L116.72 13.879C115.228 12.4043 112.817 12.4217 111.325 13.9137C109.85 15.4056 109.868 17.8344 111.36 19.309L115.072 22.9522L115.09 22.9695C115.679 23.542 116.408 23.889 117.171 24.0105C118.351 24.1839 119.583 23.8196 120.468 22.9175L124.111 19.1876C125.62 17.713 125.603 15.3015 124.093 13.8269Z" fill="white"/>
<path d="M29.6658 209.222C46.0498 209.222 59.3316 195.94 59.3316 179.556C59.3316 163.172 46.0498 149.891 29.6658 149.891C13.2818 149.891 0 163.172 0 179.556C0 195.94 13.2818 209.222 29.6658 209.222Z" fill="#10ABCD"/>
<path d="M29.0726 192.491C27.0637 192.491 25.1248 192.245 23.256 191.755C21.4106 191.241 19.9038 190.587 18.7358 189.792L21.0134 184.677C22.1114 185.377 23.3728 185.961 24.7978 186.429C26.2461 186.872 27.6827 187.094 29.1077 187.094C30.0654 187.094 30.8363 187.013 31.4203 186.849C32.0043 186.662 32.4248 186.429 32.6818 186.148C32.9621 185.845 33.1022 185.494 33.1022 185.097C33.1022 184.536 32.8453 184.093 32.3314 183.766C31.8174 183.439 31.1517 183.17 30.3341 182.96C29.5165 182.749 28.6054 182.539 27.601 182.329C26.6198 182.119 25.627 181.85 24.6226 181.523C23.6414 181.196 22.7421 180.776 21.9245 180.262C21.1069 179.724 20.4411 179.035 19.9272 178.194C19.4133 177.33 19.1563 176.244 19.1563 174.936C19.1563 173.464 19.5534 172.132 20.3477 170.941C21.1653 169.75 22.38 168.792 23.9918 168.068C25.6037 167.344 27.6126 166.981 30.0187 166.981C31.6306 166.981 33.2074 167.168 34.7491 167.542C36.3142 167.892 37.7042 168.418 38.9189 169.119L36.7814 174.27C35.6134 173.639 34.4571 173.172 33.3125 172.868C32.1678 172.541 31.0582 172.378 29.9837 172.378C29.0259 172.378 28.255 172.483 27.671 172.693C27.087 172.88 26.6666 173.137 26.4096 173.464C26.1526 173.791 26.0242 174.165 26.0242 174.585C26.0242 175.122 26.2694 175.555 26.76 175.882C27.2739 176.185 27.9397 176.442 28.7573 176.652C29.5982 176.839 30.5093 177.038 31.4904 177.248C32.4949 177.458 33.4877 177.727 34.4688 178.054C35.4733 178.358 36.3843 178.778 37.2019 179.316C38.0195 179.829 38.6736 180.519 39.1642 181.383C39.6781 182.224 39.935 183.287 39.935 184.572C39.935 185.996 39.5262 187.316 38.7086 188.531C37.9144 189.722 36.7114 190.68 35.0995 191.404C33.511 192.128 31.5021 192.491 29.0726 192.491ZM27.601 196.205V191.194H31.8058V196.205H27.601ZM27.601 168.243V163.267H31.8058V168.243H27.601Z" fill="white"/>
<path d="M241.039 262.794C258.41 262.794 272.492 248.712 272.492 231.341C272.492 213.971 258.41 199.889 241.039 199.889C223.668 199.889 209.586 213.971 209.586 231.341C209.586 248.712 223.668 262.794 241.039 262.794Z" fill="#10ABCD"/>
<path d="M255.438 222.494H247.649C248.742 221.331 249.609 219.857 249.609 218.556C249.609 216.335 248.187 215.017 245.793 215.017C244.873 215.017 242.514 215.312 241.126 218.053C239.738 215.312 237.379 215.017 236.459 215.017C234.065 215.017 232.642 216.335 232.642 218.556C232.642 219.857 233.51 221.314 234.603 222.494H226.813C226.224 222.494 225.738 222.98 225.738 223.569V228.548C225.738 229.138 226.224 229.624 226.813 229.624H226.987V244.752C226.987 245.342 227.473 245.827 228.062 245.827H254.241C254.831 245.827 255.317 245.342 255.317 244.752V229.624H255.49C256.08 229.624 256.566 229.138 256.566 228.548V223.569C256.497 222.962 256.011 222.494 255.438 222.494ZM254.363 227.473H254.189H244.04V224.628H254.363V227.473ZM229.086 229.607H238.159V243.676H229.086V229.607ZM227.837 227.473V224.628H238.159V227.473H228.01H227.837ZM240.293 224.628H241.889V227.473H240.293V224.628ZM242.201 222.494C242.496 217.706 244.769 217.15 245.775 217.15C247.337 217.15 247.458 217.844 247.458 218.556C247.458 220.117 244.804 222.494 244.214 222.494H242.201ZM237.986 222.494C237.396 222.494 234.742 220.117 234.742 218.556C234.742 217.844 234.88 217.15 236.424 217.15C237.431 217.15 239.703 217.706 239.998 222.494H237.986ZM240.293 229.607H241.889V243.676H240.293V229.607ZM253.114 243.676H244.04V229.607H253.114V243.676Z" fill="white"/>
</svg>
