<svg width="23" height="20" viewBox="0 0 23 20"  xmlns="http://www.w3.org/2000/svg">
<path d="M18.2083 19.125H4.79159C4.53742 19.125 4.29366 19.024 4.11394 18.8443C3.93422 18.6646 3.83325 18.4208 3.83325 18.1666V9.54163H0.958252L10.855 0.544797C11.0314 0.384255 11.2614 0.295288 11.4999 0.295288C11.7385 0.295288 11.9684 0.384255 12.1449 0.544797L22.0416 9.54163H19.1666V18.1666C19.1666 18.4208 19.0656 18.6646 18.8859 18.8443C18.7062 19.024 18.4624 19.125 18.2083 19.125ZM12.4583 17.2083H17.2499V7.77542L11.4999 2.54867L5.74992 7.77542V17.2083H10.5416V11.4583H12.4583V17.2083Z" />
</svg>
