<svg width="17" height="21" viewBox="0 0 17 21"  xmlns="http://www.w3.org/2000/svg">
<path fill-rule="evenodd" clip-rule="evenodd" d="M8.52883 0.916645C10.6947 0.926228 12.7647 1.78873 14.2788 3.3029C15.8026 4.82665 16.6555 6.88706 16.6459 9.02415V9.07206C16.5884 11.9758 14.9592 14.6496 12.9276 16.7387C11.7776 17.9175 10.503 18.9621 9.11342 19.8437C8.73967 20.16 8.19342 20.16 7.81966 19.8437C5.75925 18.5021 3.93841 16.8154 2.46258 14.8508C1.16883 13.145 0.430915 11.0941 0.354248 8.95706C0.373415 4.50081 4.03425 0.907062 8.52883 0.916645ZM8.52883 11.7075C9.20925 11.7075 9.86092 11.4487 10.3401 10.9791C10.8384 10.4904 11.1173 9.83969 11.1173 9.15831C11.1173 7.73998 9.95675 6.59956 8.52883 6.59956C7.10092 6.59956 5.95092 7.73998 5.95092 9.15831C5.95092 10.5584 7.08175 11.6883 8.50008 11.7075H8.52883Z" />
</svg>
